<mxfile host="www.draw.io" modified="2019-11-21T13:08:21.377Z" agent="Mozilla/5.0 (Windows NT 10.0; Win64; x64) AppleWebKit/537.36 (KHTML, like Gecko) Chrome/78.0.3904.108 Safari/537.36" etag="EbgRWK3Br9UveGZuvJPw" version="12.2.8" type="github" pages="1">
  <diagram id="6a731a19-8d31-9384-78a2-239565b7b9f0" name="Page-1">
    <mxGraphModel dx="2342" dy="583" grid="1" gridSize="10" guides="1" tooltips="1" connect="1" arrows="1" fold="1" page="1" pageScale="1" pageWidth="1169" pageHeight="827" background="#ffffff" math="0" shadow="0">
      <root>
        <mxCell id="0"/>
        <mxCell id="1" parent="0"/>
        <mxCell id="wet6F0pMuHpz1zGbCpwc-25" value="" style="ellipse;whiteSpace=wrap;html=1;fillColor=#D4E1F5;strokeColor=none;" vertex="1" parent="1">
          <mxGeometry x="-480" y="647" width="160" height="103" as="geometry"/>
        </mxCell>
        <mxCell id="wet6F0pMuHpz1zGbCpwc-15" value="" style="ellipse;whiteSpace=wrap;html=1;fillColor=#D4E1F5;strokeColor=none;" vertex="1" parent="1">
          <mxGeometry x="-205" y="90" width="150" height="110" as="geometry"/>
        </mxCell>
        <mxCell id="wet6F0pMuHpz1zGbCpwc-13" value="" style="ellipse;whiteSpace=wrap;html=1;fillColor=#D4E1F5;strokeColor=none;" vertex="1" parent="1">
          <mxGeometry x="-225" y="263" width="85" height="68" as="geometry"/>
        </mxCell>
        <mxCell id="wet6F0pMuHpz1zGbCpwc-8" value="" style="ellipse;whiteSpace=wrap;html=1;fillColor=#D4E1F5;strokeColor=none;" vertex="1" parent="1">
          <mxGeometry x="-320" y="48" width="130" height="95" as="geometry"/>
        </mxCell>
        <mxCell id="eB562k1GmdhaOTUb2sXf-1637" value="" style="ellipse;whiteSpace=wrap;html=1;fillColor=#D4E1F5;strokeColor=none;" parent="1" vertex="1">
          <mxGeometry x="-320" y="332.5" width="120" height="80" as="geometry"/>
        </mxCell>
        <mxCell id="eB562k1GmdhaOTUb2sXf-1636" value="" style="ellipse;whiteSpace=wrap;html=1;fillColor=#D4E1F5;strokeColor=none;" parent="1" vertex="1">
          <mxGeometry x="-330" y="165" width="160" height="95" as="geometry"/>
        </mxCell>
        <mxCell id="eB562k1GmdhaOTUb2sXf-1583" value="" style="rounded=0;whiteSpace=wrap;html=1;labelBackgroundColor=#ffffff;fontSize=17;gradientColor=none;fillColor=#F7F7F7;strokeColor=#000000;" parent="1" vertex="1">
          <mxGeometry x="30" y="20" width="360" height="370" as="geometry"/>
        </mxCell>
        <mxCell id="eB562k1GmdhaOTUb2sXf-1556" style="edgeStyle=orthogonalEdgeStyle;rounded=0;orthogonalLoop=1;jettySize=auto;html=1;entryX=0;entryY=0.5;entryDx=0;entryDy=0;exitX=1;exitY=0.5;exitDx=0;exitDy=0;fillColor=#b0e3e6;strokeColor=#0e8088;" parent="1" source="eB562k1GmdhaOTUb2sXf-1542" target="eB562k1GmdhaOTUb2sXf-1548" edge="1">
          <mxGeometry relative="1" as="geometry"/>
        </mxCell>
        <mxCell id="eB562k1GmdhaOTUb2sXf-1557" style="edgeStyle=orthogonalEdgeStyle;rounded=0;orthogonalLoop=1;jettySize=auto;html=1;entryX=0;entryY=0.5;entryDx=0;entryDy=0;fillColor=#b0e3e6;strokeColor=#0e8088;" parent="1" source="eB562k1GmdhaOTUb2sXf-1542" target="eB562k1GmdhaOTUb2sXf-1549" edge="1">
          <mxGeometry relative="1" as="geometry"/>
        </mxCell>
        <mxCell id="eB562k1GmdhaOTUb2sXf-1558" style="edgeStyle=orthogonalEdgeStyle;rounded=0;orthogonalLoop=1;jettySize=auto;html=1;entryX=0;entryY=0.5;entryDx=0;entryDy=0;fillColor=#b0e3e6;strokeColor=#0e8088;" parent="1" source="eB562k1GmdhaOTUb2sXf-1542" target="eB562k1GmdhaOTUb2sXf-1550" edge="1">
          <mxGeometry relative="1" as="geometry"/>
        </mxCell>
        <mxCell id="eB562k1GmdhaOTUb2sXf-1559" style="edgeStyle=orthogonalEdgeStyle;rounded=0;orthogonalLoop=1;jettySize=auto;html=1;entryX=0;entryY=0.5;entryDx=0;entryDy=0;fillColor=#b0e3e6;strokeColor=#0e8088;" parent="1" source="eB562k1GmdhaOTUb2sXf-1542" target="eB562k1GmdhaOTUb2sXf-1551" edge="1">
          <mxGeometry relative="1" as="geometry"/>
        </mxCell>
        <mxCell id="eB562k1GmdhaOTUb2sXf-1560" style="edgeStyle=orthogonalEdgeStyle;rounded=0;orthogonalLoop=1;jettySize=auto;html=1;fillColor=#b0e3e6;strokeColor=#0e8088;" parent="1" source="eB562k1GmdhaOTUb2sXf-1542" target="eB562k1GmdhaOTUb2sXf-1552" edge="1">
          <mxGeometry relative="1" as="geometry"/>
        </mxCell>
        <mxCell id="eB562k1GmdhaOTUb2sXf-1561" style="edgeStyle=orthogonalEdgeStyle;rounded=0;orthogonalLoop=1;jettySize=auto;html=1;entryX=0;entryY=0.5;entryDx=0;entryDy=0;fillColor=#b0e3e6;strokeColor=#0e8088;" parent="1" source="eB562k1GmdhaOTUb2sXf-1542" target="eB562k1GmdhaOTUb2sXf-1554" edge="1">
          <mxGeometry relative="1" as="geometry"/>
        </mxCell>
        <mxCell id="eB562k1GmdhaOTUb2sXf-1562" style="edgeStyle=orthogonalEdgeStyle;rounded=0;orthogonalLoop=1;jettySize=auto;html=1;entryX=0;entryY=0.5;entryDx=0;entryDy=0;fillColor=#b0e3e6;strokeColor=#0e8088;" parent="1" source="eB562k1GmdhaOTUb2sXf-1542" target="eB562k1GmdhaOTUb2sXf-1555" edge="1">
          <mxGeometry relative="1" as="geometry"/>
        </mxCell>
        <mxCell id="eB562k1GmdhaOTUb2sXf-1542" value="PratoSearch" style="ellipse;whiteSpace=wrap;html=1;fillColor=#FFFFFF;strokeColor=#0e8088;labelBackgroundColor=none;fontColor=#EA6B66;strokeWidth=1;fontStyle=1" parent="1" vertex="1">
          <mxGeometry x="70" y="170" width="80" height="80" as="geometry"/>
        </mxCell>
        <mxCell id="eB562k1GmdhaOTUb2sXf-1548" value="placeid:char(255)" style="rounded=1;whiteSpace=wrap;html=1;fillColor=#b0e3e6;strokeColor=#0e8088;fontColor=#1A1A1A;" parent="1" vertex="1">
          <mxGeometry x="240" y="60" width="130" height="30" as="geometry"/>
        </mxCell>
        <mxCell id="eB562k1GmdhaOTUb2sXf-1549" value="lat:float" style="rounded=1;whiteSpace=wrap;html=1;fillColor=#b0e3e6;strokeColor=#0e8088;fontColor=#1A1A1A;" parent="1" vertex="1">
          <mxGeometry x="240" y="105" width="130" height="30" as="geometry"/>
        </mxCell>
        <mxCell id="eB562k1GmdhaOTUb2sXf-1550" value="lng:float" style="rounded=1;whiteSpace=wrap;html=1;fillColor=#b0e3e6;strokeColor=#0e8088;fontColor=#1A1A1A;" parent="1" vertex="1">
          <mxGeometry x="240" y="150" width="130" height="30" as="geometry"/>
        </mxCell>
        <mxCell id="eB562k1GmdhaOTUb2sXf-1551" value="rating:float" style="rounded=1;whiteSpace=wrap;html=1;fillColor=#b0e3e6;strokeColor=#0e8088;fontColor=#1A1A1A;" parent="1" vertex="1">
          <mxGeometry x="240" y="195" width="130" height="30" as="geometry"/>
        </mxCell>
        <mxCell id="eB562k1GmdhaOTUb2sXf-1552" value="user_ratings_total:int" style="rounded=1;whiteSpace=wrap;html=1;fillColor=#b0e3e6;strokeColor=#0e8088;fontColor=#1A1A1A;" parent="1" vertex="1">
          <mxGeometry x="240" y="240" width="130" height="30" as="geometry"/>
        </mxCell>
        <mxCell id="eB562k1GmdhaOTUb2sXf-1554" value="name:char(255)" style="rounded=1;whiteSpace=wrap;html=1;fillColor=#b0e3e6;strokeColor=#0e8088;fontColor=#1A1A1A;" parent="1" vertex="1">
          <mxGeometry x="240" y="285" width="130" height="30" as="geometry"/>
        </mxCell>
        <mxCell id="eB562k1GmdhaOTUb2sXf-1555" value="type:char(255)" style="rounded=1;whiteSpace=wrap;html=1;fillColor=#b0e3e6;strokeColor=#0e8088;fontColor=#1A1A1A;" parent="1" vertex="1">
          <mxGeometry x="240" y="330" width="130" height="30" as="geometry"/>
        </mxCell>
        <mxCell id="eB562k1GmdhaOTUb2sXf-1582" value="Basic Infomation" style="text;html=1;resizable=0;points=[];autosize=1;align=left;verticalAlign=top;spacingTop=-4;fontColor=#1A1A1A;fontStyle=1;fontSize=17;" parent="1" vertex="1">
          <mxGeometry x="40" y="30" width="100" height="20" as="geometry"/>
        </mxCell>
        <mxCell id="eB562k1GmdhaOTUb2sXf-1584" value="Type Classify" style="text;html=1;resizable=0;points=[];autosize=1;align=left;verticalAlign=top;spacingTop=-4;fontColor=#1A1A1A;fontStyle=1;fontSize=17;" parent="1" vertex="1">
          <mxGeometry x="510" y="30" width="120" height="20" as="geometry"/>
        </mxCell>
        <mxCell id="eB562k1GmdhaOTUb2sXf-1585" value="Based on&amp;nbsp;destination" style="text;html=1;resizable=0;points=[];autosize=1;align=left;verticalAlign=top;spacingTop=-4;fontColor=#1A1A1A;fontStyle=1;fontSize=17;" parent="1" vertex="1">
          <mxGeometry x="510" y="560" width="170" height="20" as="geometry"/>
        </mxCell>
        <mxCell id="eB562k1GmdhaOTUb2sXf-1586" value="Based on&amp;nbsp;derivation" style="text;html=1;resizable=0;points=[];autosize=1;align=left;verticalAlign=top;spacingTop=-4;fontColor=#1A1A1A;fontStyle=1;fontSize=17;" parent="1" vertex="1">
          <mxGeometry x="510" y="60" width="170" height="20" as="geometry"/>
        </mxCell>
        <mxCell id="eB562k1GmdhaOTUb2sXf-1587" value="Resident / Living" style="ellipse;whiteSpace=wrap;html=1;fillColor=#FFFFFF;strokeColor=#0e8088;labelBackgroundColor=none;fontColor=#EA6B66;strokeWidth=1;fontStyle=1" parent="1" vertex="1">
          <mxGeometry x="700" y="225" width="80" height="80" as="geometry"/>
        </mxCell>
        <mxCell id="eB562k1GmdhaOTUb2sXf-1593" value="Education" style="ellipse;whiteSpace=wrap;html=1;fillColor=#f8cecc;strokeColor=#b85450;labelBackgroundColor=none;strokeWidth=1;fontColor=#660000;fontStyle=1" parent="1" vertex="1">
          <mxGeometry x="890" y="155" width="70" height="70" as="geometry"/>
        </mxCell>
        <mxCell id="eB562k1GmdhaOTUb2sXf-1598" value="Health" style="ellipse;whiteSpace=wrap;html=1;fillColor=#f8cecc;strokeColor=#b85450;labelBackgroundColor=none;strokeWidth=1;fontColor=#660000;fontStyle=1" parent="1" vertex="1">
          <mxGeometry x="785" y="90" width="70" height="70" as="geometry"/>
        </mxCell>
        <mxCell id="eB562k1GmdhaOTUb2sXf-1599" value="Repast" style="ellipse;whiteSpace=wrap;html=1;fillColor=#f8cecc;strokeColor=#b85450;labelBackgroundColor=none;strokeWidth=1;fontColor=#660000;fontStyle=1" parent="1" vertex="1">
          <mxGeometry x="880" y="285" width="70" height="70" as="geometry"/>
        </mxCell>
        <mxCell id="eB562k1GmdhaOTUb2sXf-1600" value="Entertain" style="ellipse;whiteSpace=wrap;html=1;fillColor=#f8cecc;strokeColor=#b85450;labelBackgroundColor=none;strokeWidth=1;fontColor=#660000;fontStyle=1" parent="1" vertex="1">
          <mxGeometry x="790" y="360" width="70" height="70" as="geometry"/>
        </mxCell>
        <mxCell id="eB562k1GmdhaOTUb2sXf-1602" value="Commerce" style="ellipse;whiteSpace=wrap;html=1;fillColor=#f8cecc;strokeColor=#b85450;labelBackgroundColor=none;strokeWidth=1;fontColor=#660000;fontStyle=1" parent="1" vertex="1">
          <mxGeometry x="595" y="370" width="70" height="70" as="geometry"/>
        </mxCell>
        <mxCell id="eB562k1GmdhaOTUb2sXf-1603" value="Service" style="ellipse;whiteSpace=wrap;html=1;fillColor=#f8cecc;strokeColor=#b85450;labelBackgroundColor=none;strokeWidth=1;fontColor=#660000;fontStyle=1" parent="1" vertex="1">
          <mxGeometry x="535" y="125" width="70" height="70" as="geometry"/>
        </mxCell>
        <mxCell id="eB562k1GmdhaOTUb2sXf-1604" value="Worship" style="ellipse;whiteSpace=wrap;html=1;fillColor=#f8cecc;strokeColor=#b85450;labelBackgroundColor=none;strokeWidth=1;fontColor=#660000;fontStyle=1" parent="1" vertex="1">
          <mxGeometry x="549.5" y="215" width="70" height="70" as="geometry"/>
        </mxCell>
        <mxCell id="eB562k1GmdhaOTUb2sXf-1605" value="Transport" style="ellipse;whiteSpace=wrap;html=1;fillColor=#f8cecc;strokeColor=#b85450;labelBackgroundColor=none;strokeWidth=1;fontColor=#660000;fontStyle=1" parent="1" vertex="1">
          <mxGeometry x="645" y="100" width="70" height="70" as="geometry"/>
        </mxCell>
        <mxCell id="eB562k1GmdhaOTUb2sXf-1606" value="Residential" style="rounded=0;whiteSpace=wrap;html=1;" parent="1" vertex="1">
          <mxGeometry x="-646" y="105" width="120" height="30" as="geometry"/>
        </mxCell>
        <mxCell id="eB562k1GmdhaOTUb2sXf-1607" value="Commercial" style="rounded=0;whiteSpace=wrap;html=1;fillColor=#CCCCCC;strokeColor=#666666;fontColor=#999999;" parent="1" vertex="1">
          <mxGeometry x="-646" y="175" width="120" height="30" as="geometry"/>
        </mxCell>
        <mxCell id="eB562k1GmdhaOTUb2sXf-1609" value="Industrial" style="rounded=0;whiteSpace=wrap;html=1;" parent="1" vertex="1">
          <mxGeometry x="-646" y="245" width="120" height="30" as="geometry"/>
        </mxCell>
        <mxCell id="eB562k1GmdhaOTUb2sXf-1611" value="Educational" style="rounded=0;whiteSpace=wrap;html=1;" parent="1" vertex="1">
          <mxGeometry x="-646" y="315" width="120" height="30" as="geometry"/>
        </mxCell>
        <mxCell id="eB562k1GmdhaOTUb2sXf-1612" value="Civic" style="rounded=0;whiteSpace=wrap;html=1;" parent="1" vertex="1">
          <mxGeometry x="-646" y="385" width="120" height="30" as="geometry"/>
        </mxCell>
        <mxCell id="eB562k1GmdhaOTUb2sXf-1613" value="&lt;div&gt;Religious&lt;/div&gt;" style="rounded=0;whiteSpace=wrap;html=1;" parent="1" vertex="1">
          <mxGeometry x="-646" y="455" width="120" height="30" as="geometry"/>
        </mxCell>
        <mxCell id="eB562k1GmdhaOTUb2sXf-1614" value="&lt;div&gt;Government&lt;/div&gt;" style="rounded=0;whiteSpace=wrap;html=1;" parent="1" vertex="1">
          <mxGeometry x="-646" y="525" width="120" height="30" as="geometry"/>
        </mxCell>
        <mxCell id="eB562k1GmdhaOTUb2sXf-1615" value="&lt;div&gt;Military&lt;/div&gt;" style="rounded=0;whiteSpace=wrap;html=1;" parent="1" vertex="1">
          <mxGeometry x="-646" y="595" width="120" height="30" as="geometry"/>
        </mxCell>
        <mxCell id="eB562k1GmdhaOTUb2sXf-1617" value="&lt;div&gt;Transport&lt;/div&gt;" style="rounded=0;whiteSpace=wrap;html=1;" parent="1" vertex="1">
          <mxGeometry x="-646" y="665" width="120" height="30" as="geometry"/>
        </mxCell>
        <mxCell id="eB562k1GmdhaOTUb2sXf-1619" value="Office" style="rounded=0;whiteSpace=wrap;html=1;" parent="1" vertex="1">
          <mxGeometry x="-470" y="122.5" width="120" height="30" as="geometry"/>
        </mxCell>
        <mxCell id="eB562k1GmdhaOTUb2sXf-1621" value="Retail" style="rounded=0;whiteSpace=wrap;html=1;" parent="1" vertex="1">
          <mxGeometry x="-470" y="162.5" width="120" height="30" as="geometry"/>
        </mxCell>
        <mxCell id="eB562k1GmdhaOTUb2sXf-1622" value="Hotels" style="rounded=0;whiteSpace=wrap;html=1;" parent="1" vertex="1">
          <mxGeometry x="-470" y="202.5" width="120" height="30" as="geometry"/>
        </mxCell>
        <mxCell id="eB562k1GmdhaOTUb2sXf-1624" value="Entertain" style="rounded=0;whiteSpace=wrap;html=1;" parent="1" vertex="1">
          <mxGeometry x="-470" y="242.5" width="120" height="30" as="geometry"/>
        </mxCell>
        <mxCell id="eB562k1GmdhaOTUb2sXf-1625" value="Service" style="rounded=0;whiteSpace=wrap;html=1;" parent="1" vertex="1">
          <mxGeometry x="-470" y="327.5" width="120" height="30" as="geometry"/>
        </mxCell>
        <mxCell id="eB562k1GmdhaOTUb2sXf-1632" value="accounting" style="text;html=1;resizable=0;points=[];autosize=1;align=left;verticalAlign=top;spacingTop=-4;" parent="1" vertex="1">
          <mxGeometry x="-305" y="347.5" width="70" height="20" as="geometry"/>
        </mxCell>
        <mxCell id="eB562k1GmdhaOTUb2sXf-1633" value="airport" style="text;html=1;resizable=0;points=[];autosize=1;align=left;verticalAlign=top;spacingTop=-4;" parent="1" vertex="1">
          <mxGeometry x="-410" y="681" width="50" height="20" as="geometry"/>
        </mxCell>
        <mxCell id="eB562k1GmdhaOTUb2sXf-1634" value="amusement_park" style="text;html=1;resizable=0;points=[];autosize=1;align=left;verticalAlign=top;spacingTop=-4;" parent="1" vertex="1">
          <mxGeometry x="-310" y="192.5" width="110" height="20" as="geometry"/>
        </mxCell>
        <mxCell id="wet6F0pMuHpz1zGbCpwc-1" value="aquarium" style="text;html=1;" vertex="1" parent="1">
          <mxGeometry x="-295" y="212.5" width="80" height="30" as="geometry"/>
        </mxCell>
        <mxCell id="wet6F0pMuHpz1zGbCpwc-3" value="Repact" style="rounded=0;whiteSpace=wrap;html=1;" vertex="1" parent="1">
          <mxGeometry x="-470" y="82.5" width="120" height="30" as="geometry"/>
        </mxCell>
        <mxCell id="wet6F0pMuHpz1zGbCpwc-4" value="bank" style="text;html=1;" vertex="1" parent="1">
          <mxGeometry x="-295" y="365" width="50" height="30" as="geometry"/>
        </mxCell>
        <mxCell id="wet6F0pMuHpz1zGbCpwc-5" value="bakery" style="text;html=1;" vertex="1" parent="1">
          <mxGeometry x="-285" y="65" width="60" height="30" as="geometry"/>
        </mxCell>
        <mxCell id="wet6F0pMuHpz1zGbCpwc-6" value="atm" style="text;html=1;" vertex="1" parent="1">
          <mxGeometry x="-260" y="360" width="50" height="30" as="geometry"/>
        </mxCell>
        <mxCell id="wet6F0pMuHpz1zGbCpwc-7" value="bar" style="text;html=1;" vertex="1" parent="1">
          <mxGeometry x="-260" y="82.5" width="40" height="30" as="geometry"/>
        </mxCell>
        <mxCell id="wet6F0pMuHpz1zGbCpwc-12" value="Beauty" style="rounded=0;whiteSpace=wrap;html=1;" vertex="1" parent="1">
          <mxGeometry x="-470" y="285" width="120" height="30" as="geometry"/>
        </mxCell>
        <mxCell id="wet6F0pMuHpz1zGbCpwc-14" value="beauty_salon" style="text;html=1;resizable=0;points=[];autosize=1;align=left;verticalAlign=top;spacingTop=-4;fontColor=#000000;" vertex="1" parent="1">
          <mxGeometry x="-220" y="287" width="90" height="20" as="geometry"/>
        </mxCell>
        <mxCell id="wet6F0pMuHpz1zGbCpwc-17" value="bicycle_store" style="text;html=1;resizable=0;points=[];autosize=1;align=left;verticalAlign=top;spacingTop=-4;fontColor=#000000;" vertex="1" parent="1">
          <mxGeometry x="-185" y="110" width="90" height="20" as="geometry"/>
        </mxCell>
        <mxCell id="wet6F0pMuHpz1zGbCpwc-19" value="Sports" style="rounded=0;whiteSpace=wrap;html=1;" vertex="1" parent="1">
          <mxGeometry x="-470" y="370" width="120" height="30" as="geometry"/>
        </mxCell>
        <mxCell id="wet6F0pMuHpz1zGbCpwc-20" value="" style="ellipse;whiteSpace=wrap;html=1;fillColor=#D4E1F5;strokeColor=none;" vertex="1" parent="1">
          <mxGeometry x="-210" y="373" width="140" height="88" as="geometry"/>
        </mxCell>
        <mxCell id="wet6F0pMuHpz1zGbCpwc-21" value="bowling_alley" style="text;html=1;fontColor=#000000;" vertex="1" parent="1">
          <mxGeometry x="-190" y="390" width="100" height="30" as="geometry"/>
        </mxCell>
        <mxCell id="wet6F0pMuHpz1zGbCpwc-22" value="book_store" style="text;html=1;fontColor=#000000;" vertex="1" parent="1">
          <mxGeometry x="-170" y="122.5" width="80" height="30" as="geometry"/>
        </mxCell>
        <mxCell id="wet6F0pMuHpz1zGbCpwc-24" value="bus_station" style="text;html=1;fontColor=#000000;" vertex="1" parent="1">
          <mxGeometry x="-455" y="661" width="90" height="30" as="geometry"/>
        </mxCell>
        <mxCell id="wet6F0pMuHpz1zGbCpwc-26" value="cafe" style="text;html=1;fontColor=#000000;" vertex="1" parent="1">
          <mxGeometry x="-305" y="80.5" width="50" height="30" as="geometry"/>
        </mxCell>
        <mxCell id="wet6F0pMuHpz1zGbCpwc-28" value="transit_station" style="text;html=1;fontColor=#000000;" vertex="1" parent="1">
          <mxGeometry x="-450" y="698.5" width="100" height="30" as="geometry"/>
        </mxCell>
      </root>
    </mxGraphModel>
  </diagram>
</mxfile>
